# xmcd
#
# Track frame offsets:
#	150
#	20722
#	37918
#	54500
#	71758
#	95266
#	108128
#	116149
#	132659
#	146815
#	170536
#
# Disc length: 2437 seconds
#
# Revision: 1
# Processed by: cddbd v1.5.2PL0 Copyright (c) Steve Scherf et al.
# Submitted via: audiograbber 1.83.01
#
DISCID=9e09830b
DTITLE=Russ Barenberg - When At Last
DYEAR=2007
DGENRE=country
TTITLE0=Little Monk
TTITLE1=Fat Mountain
TTITLE2=When at Last
TTITLE3=The Pleasant Beggar
TTITLE4=The Man in the Hat
TTITLE5=On Milo's Back
TTITLE6=A Dream for Sophie
TTITLE7=Redbird in the Willow-The Lakes
TTITLE8=Jump Back Barley
TTITLE9=The Drummers of England
TTITLE10=Aux Marches du Palais (On the Steps of the Palace)
EXTD=
EXTT0=
EXTT1=
EXTT2=
EXTT3=
EXTT4=
EXTT5=
EXTT6=
EXTT7=
EXTT8=
EXTT9=
EXTT10=
PLAYORDER=
